<?xml version="1.0" standalone="no"?>
<!DOCTYPE svg PUBLIC "-//W3C//DTD SVG 20010904//EN"
 "http://www.w3.org/TR/2001/REC-SVG-20010904/DTD/svg10.dtd">
<svg version="1.0" xmlns="http://www.w3.org/2000/svg"
 width="300.000000pt" height="214.000000pt" viewBox="0 0 300.000000 214.000000"
 preserveAspectRatio="xMidYMid meet">

<g transform="translate(0.000000,214.000000) scale(0.100000,-0.100000)"
fill="#fff" stroke="none">
<path d="M1440 1820 c-210 -34 -702 -110 -717 -110 -2 0 -3 -281 -3 -624 l0
-624 28 -6 c26 -6 402 -71 698 -121 78 -13 153 -27 168 -31 l26 -6 0 101 0
101 298 0 c277 0 300 1 315 18 15 17 17 72 17 589 l0 570 -23 21 c-23 22 -29
22 -315 22 l-292 0 0 65 c0 56 -3 65 -17 64 -10 -1 -92 -14 -183 -29z m778
-717 l2 -563 -290 0 -290 0 -1 33 c0 17 -2 42 -3 54 -3 22 1 23 66 23 l68 0 0
60 0 59 -67 3 -68 3 0 35 0 35 68 3 67 3 0 54 0 55 -52 1 c-86 2 -83 0 -83 44
l0 40 65 0 65 0 3 58 3 57 -71 0 -71 0 3 38 3 37 68 3 67 3 0 54 0 54 -67 3
-68 3 -3 38 -3 37 70 0 71 0 0 60 0 60 -70 0 -70 0 0 53 c0 30 3 57 7 60 4 4
135 6 292 5 l286 -3 3 -562z m-858 293 c0 -2 -32 -69 -70 -149 l-70 -146 69
-143 c39 -79 67 -146 63 -149 -4 -3 -33 -3 -65 -1 -43 3 -60 8 -64 20 -20 58
-67 178 -73 185 -3 4 -24 -37 -46 -90 l-39 -98 -55 3 c-30 2 -57 6 -60 9 -3 3
25 62 61 132 l66 127 -19 40 c-70 151 -98 217 -98 230 0 11 14 14 59 14 l59 0
17 -42 c9 -24 24 -63 32 -88 8 -25 18 -48 22 -53 4 -4 24 38 46 92 36 94 41
100 69 104 47 6 96 7 96 3z"/>
<path d="M1860 1490 l0 -60 115 0 115 0 0 60 0 60 -115 0 -115 0 0 -60z"/>
<path d="M1860 1295 l0 -55 115 0 115 0 0 55 0 55 -115 0 -115 0 0 -55z"/>
<path d="M1860 1101 l0 -59 113 2 112 1 3 58 3 57 -116 0 -115 0 0 -59z"/>
<path d="M1860 905 l0 -55 115 0 115 0 0 55 0 55 -115 0 -115 0 0 -55z"/>
<path d="M1860 710 l0 -60 115 0 115 0 0 60 0 60 -115 0 -115 0 0 -60z"/>
</g>
</svg>
