<?xml version="1.0" standalone="no"?>
<!DOCTYPE svg PUBLIC "-//W3C//DTD SVG 20010904//EN"
 "http://www.w3.org/TR/2001/REC-SVG-20010904/DTD/svg10.dtd">
<svg version="1.0" xmlns="http://www.w3.org/2000/svg"
 width="512.000000pt" height="512.000000pt" viewBox="0 0 512.000000 512.000000"
 preserveAspectRatio="xMidYMid meet">

<g transform="translate(0.000000,512.000000) scale(0.100000,-0.100000)"
fill="#000000" stroke="none">
<path d="M1200 4794 c-19 -2 -80 -9 -135 -15 -352 -37 -654 -162 -816 -336
-177 -192 -213 -454 -114 -823 54 -201 948 -3176 958 -3188 6 -8 23 -12 40 -9
22 3 32 -2 44 -20 9 -13 37 -36 62 -51 40 -24 56 -27 131 -27 72 1 109 8 240
48 85 25 792 211 1570 413 778 201 1449 379 1491 395 199 77 274 187 299 437
14 142 73 1991 68 2112 -6 112 -27 169 -81 217 -75 66 -176 69 -457 15 l-195
-38 -7 55 c-13 111 -57 193 -148 274 -110 99 -226 131 -445 124 -139 -5 -192
-13 -700 -112 -466 -91 -566 -107 -655 -108 -98 -2 -108 0 -157 27 -64 35 -94
79 -134 194 -66 188 -142 288 -266 350 -106 54 -160 64 -368 67 -104 2 -206 1
-225 -1z m443 -93 c94 -25 147 -51 204 -104 58 -53 87 -105 135 -235 80 -222
156 -281 365 -282 89 0 174 14 650 104 301 58 598 110 659 117 180 19 322 -11
425 -93 l51 -40 -23 -24 c-15 -16 -29 -22 -44 -18 -24 6 -43 -10 -25 -21 5 -3
10 -18 10 -32 0 -20 4 -24 20 -20 39 10 42 -18 5 -53 l-35 -34 -27 27 -27 26
22 24 c12 13 22 29 22 35 0 29 -40 7 -107 -60 -62 -62 -74 -70 -88 -58 -22 19
-44 -3 -29 -28 9 -14 4 -26 -32 -65 l-43 -47 -438 75 c-2297 392 -2239 382
-2261 369 -14 -9 -51 -209 -196 -1052 -99 -573 -183 -1039 -187 -1034 -9 10
-423 1395 -454 1522 -36 142 -45 355 -20 450 57 221 223 367 534 470 200 67
404 97 677 99 149 1 194 -2 257 -18z m-165 -576 c213 -35 756 -128 1207 -205
451 -77 824 -140 829 -140 36 0 -68 -22 -604 -125 -667 -128 -770 -151 -910
-197 -303 -100 -470 -234 -575 -460 -70 -152 -78 -202 -160 -948 -26 -234 -49
-427 -51 -429 -5 -5 -38 2 -264 56 -85 20 -158 39 -162 43 -4 3 -25 64 -47
135 l-39 130 189 1090 c104 600 189 1096 189 1103 0 6 2 12 5 12 3 0 180 -29
393 -65z m2718 -59 c41 -87 32 -98 -31 -36 l-55 54 22 23 c26 28 34 23 64 -41z
m-26 -91 c18 -20 26 -22 37 -13 12 10 14 6 11 -23 -3 -32 -6 -34 -51 -43 -43
-7 -51 -6 -73 15 l-24 23 32 33 c17 18 35 33 38 33 4 0 17 -11 30 -25z m-180
-10 l24 -25 -28 -29 c-16 -16 -25 -34 -22 -39 15 -25 -22 -17 -52 11 l-32 31
37 38 c20 21 40 38 43 38 4 0 17 -11 30 -25z m850 -46 c54 -12 77 -31 101 -84
24 -51 24 -201 4 -765 -8 -223 -15 -417 -15 -432 0 -18 -4 -26 -13 -22 -7 2
-32 -16 -57 -41 l-44 -45 -33 32 c-26 25 -36 29 -45 20 -9 -9 -5 -19 20 -45
l32 -33 -25 -24 c-27 -26 -33 -50 -12 -50 8 0 22 9 32 20 25 28 36 25 75 -15
19 -19 40 -35 48 -35 12 0 13 -35 8 -237 -11 -353 -24 -594 -36 -647 -23 -104
-77 -180 -166 -232 l-46 -27 -56 56 -57 57 80 80 79 80 38 -37 c30 -29 41 -34
50 -25 9 9 4 20 -24 50 -30 30 -34 40 -25 54 17 25 -5 47 -28 28 -14 -11 -20
-10 -43 13 l-26 27 59 60 c47 47 57 62 47 72 -10 10 -25 0 -72 -47 l-60 -59
-75 74 c-41 41 -75 79 -75 84 0 6 28 39 63 74 50 51 59 64 47 72 -11 7 -31 -6
-81 -56 l-65 -65 -24 26 c-25 27 -50 33 -50 12 0 -8 11 -24 25 -37 l25 -24
-35 -36 c-19 -20 -35 -41 -35 -48 0 -21 25 -13 55 18 16 16 34 30 40 30 6 0
44 -34 85 -75 l74 -74 -22 -24 c-41 -44 -19 -66 25 -25 l24 22 27 -27 27 -27
-80 -80 -80 -80 -72 72 -73 72 61 62 c56 56 68 84 36 84 -6 0 -37 -26 -69 -57
l-58 -58 -125 125 c-98 98 -127 122 -137 112 -9 -9 -4 -21 27 -52 l39 -40 -62
-62 -61 -62 -30 28 c-47 45 -72 14 -26 -34 l25 -26 -110 -109 -110 -109 -34
33 c-32 31 -56 35 -56 8 0 -6 13 -25 30 -42 l30 -31 -80 -79 -80 -80 -62 63
-63 62 59 59 c53 54 64 81 33 81 -7 0 -77 -65 -157 -145 -105 -105 -147 -141
-156 -134 -15 12 -28 -5 -21 -25 3 -7 -22 -41 -57 -75 l-62 -61 -34 35 -34 35
59 60 c47 47 57 62 47 72 -10 10 -38 -13 -132 -107 -112 -112 -122 -119 -141
-107 -30 19 -49 0 -26 -26 16 -17 14 -21 -28 -62 l-44 -43 -36 31 c-38 34 -50
38 -61 21 -3 -6 10 -27 30 -48 l36 -37 -37 -36 c-37 -36 -47 -39 -578 -177
-297 -77 -569 -150 -605 -161 -36 -12 -99 -23 -140 -26 -64 -5 -80 -2 -107 15
-97 61 -111 235 -48 635 14 89 61 488 105 886 89 802 90 807 131 935 93 291
302 452 720 554 106 26 326 70 809 162 58 11 431 83 830 160 912 176 869 168
905 172 54 7 70 7 115 -4z m-782 -40 c-7 -5 -22 -9 -32 -9 -18 0 -18 1 -1 20
14 16 21 17 32 8 11 -9 11 -13 1 -19z m-183 -19 c15 -17 16 -20 3 -20 -9 0
-31 -3 -49 -6 l-34 -7 24 27 c29 31 33 32 56 6z m1050 -1399 l-6 -34 -35 34
c-19 18 -34 37 -34 43 0 6 17 27 38 49 l37 38 3 -48 c2 -26 0 -63 -3 -82z
m-670 -841 l70 -70 -63 -62 -62 -63 -72 72 -73 73 60 60 c33 33 62 60 65 60 3
0 37 -32 75 -70z m-3255 -35 c199 -46 186 -41 166 -64 -11 -12 -25 -17 -38
-13 -18 4 -20 2 -16 -16 4 -14 -2 -28 -18 -43 -28 -26 -30 -37 -8 -46 8 -3 25
4 39 17 24 23 25 23 45 5 22 -20 29 -98 9 -111 -6 -3 -28 11 -50 32 -30 30
-42 35 -51 26 -9 -9 -5 -19 20 -45 18 -18 32 -37 32 -42 0 -5 -23 -33 -52 -62
-40 -40 -49 -56 -41 -64 9 -9 16 -9 28 1 14 11 21 8 50 -20 45 -43 47 -85 7
-123 l-28 -27 -29 30 c-16 16 -34 30 -41 30 -28 0 -25 -23 7 -56 32 -33 32
-34 14 -54 -10 -11 -20 -19 -22 -17 -1 2 -48 154 -103 338 -55 184 -103 342
-106 352 -5 15 -2 18 13 14 10 -3 88 -22 173 -42z m3060 -300 l-110 -110 -72
73 -73 72 110 110 110 110 72 -72 73 -73 -110 -110z m390 40 c-28 -28 -50 -56
-50 -62 0 -29 24 -20 75 28 l56 53 46 -47 c26 -25 44 -49 41 -52 -4 -4 -71
-24 -150 -45 -352 -94 -448 -117 -448 -107 0 6 -9 20 -20 32 l-20 21 110 109
109 109 65 -62 c35 -34 69 -62 75 -62 27 0 6 40 -49 95 l-60 59 62 63 62 63
73 -72 73 -72 -50 -51z m-3250 143 c0 -16 -3 -19 -11 -11 -6 6 -8 16 -5 22 11
17 16 13 16 -11z m2700 -343 c-38 -41 -14 -72 26 -34 24 23 25 23 44 3 19 -19
18 -20 -253 -90 -149 -39 -275 -67 -278 -62 -3 5 28 42 70 83 l76 74 32 -31
c17 -16 36 -27 42 -24 17 11 14 21 -16 56 l-26 31 79 80 79 79 72 -72 73 -72
-20 -21z m-2724 109 c-3 -9 -6 -32 -6 -52 l0 -36 -30 29 -30 29 22 23 c25 27
53 31 44 7z m2311 -184 l-72 -76 -65 63 -65 63 75 75 74 75 63 -62 63 -62 -73
-76z m-152 -50 c38 -38 67 -71 64 -74 -4 -4 -189 -56 -201 -56 -5 0 -8 5 -8
12 0 7 -12 25 -27 40 l-27 28 59 60 c33 33 62 60 65 60 3 0 37 -31 75 -70z
m-287 -13 l32 -33 -35 -34 c-35 -33 -46 -70 -23 -70 7 0 29 17 50 37 l38 37
30 -29 c16 -16 29 -30 27 -31 -1 -1 -80 -23 -175 -48 -170 -44 -172 -44 -183
-24 -9 17 -5 26 32 64 l43 44 41 -40 c22 -22 46 -40 53 -40 22 0 12 26 -23 60
-19 19 -35 38 -35 44 0 11 80 96 90 96 3 0 20 -15 38 -33z m-1939 -71 c9 -11
9 -41 1 -122 -6 -60 -12 -110 -14 -111 -3 -4 -56 173 -56 188 0 14 39 59 51
59 3 0 12 -6 18 -14z m1665 -145 c3 -5 -3 -11 -15 -14 -16 -4 -18 -3 -8 9 13
16 16 17 23 5z"/>
<path d="M2645 2890 l-59 -60 -57 56 c-45 45 -58 53 -67 41 -9 -10 0 -25 43
-67 l55 -54 -72 -73 -72 -73 -52 51 c-48 47 -74 56 -74 26 0 -6 21 -33 47 -59
l48 -48 -68 -67 -67 -68 -60 60 -60 59 92 93 c73 73 90 95 80 105 -10 10 -31
-6 -100 -75 -48 -48 -92 -87 -97 -87 -5 0 -26 17 -47 37 -30 29 -41 34 -50 25
-9 -9 -4 -20 25 -50 20 -21 37 -42 37 -48 0 -5 -29 -39 -65 -74 -62 -62 -79
-90 -53 -90 7 0 44 32 83 70 l71 70 59 -60 59 -60 -138 -139 c-126 -127 -148
-159 -120 -168 5 -2 72 60 149 137 l140 140 107 -107 c84 -84 110 -105 120
-95 9 9 7 17 -10 35 l-22 23 68 67 68 67 74 -75 c69 -69 110 -93 110 -63 0 7
-35 48 -77 90 l-78 78 73 72 72 73 80 -80 80 -79 -42 -43 c-33 -34 -39 -46
-30 -55 9 -9 20 -4 50 25 21 20 42 37 48 37 6 0 23 -13 39 -30 22 -23 31 -27
42 -18 11 9 8 17 -17 43 -16 17 -30 35 -30 40 0 5 30 40 67 77 53 53 65 70 55
80 -10 10 -28 -3 -85 -60 l-72 -72 -80 80 -80 80 88 88 c48 48 87 93 87 100 0
30 -41 5 -120 -73 l-85 -85 -70 70 -69 70 63 64 c58 59 70 86 38 86 -7 0 -39
-27 -72 -60z m18 -188 l67 -68 -73 -72 -73 -72 -69 70 -69 70 69 70 c38 39 72
70 75 70 3 0 36 -30 73 -68z m-176 -309 l-67 -68 -70 70 -70 69 67 68 68 68
70 -70 70 -70 -68 -67z"/>
<path d="M4673 2344 c-3 -10 8 -29 31 -53 l36 -37 -27 -27 c-21 -21 -25 -29
-15 -39 9 -9 18 -6 40 15 l28 27 44 -45 44 -45 -59 -60 -59 -60 -68 67 c-53
53 -70 65 -80 55 -10 -10 2 -27 55 -80 l67 -68 -22 -22 c-17 -17 -20 -24 -10
-34 9 -9 16 -8 30 5 10 9 23 17 28 17 5 0 38 -29 74 -65 50 -51 67 -62 77 -53
12 9 2 24 -51 77 -36 37 -66 71 -66 77 0 5 26 36 58 67 70 70 71 89 9 154
l-41 43 37 38 c29 30 34 41 25 50 -9 9 -20 4 -50 -25 l-37 -36 -41 36 c-45 42
-48 43 -57 21z"/>
</g>
</svg>
